{
	"asset":{
		"generator":"Khronos glTF Blender I/O v5.2.40",
		"version":"2.0"
	},
	"scene":0,
	"scenes":[
		{
			"name":"Scene",
			"nodes":[
				2,
				3
			]
		}
	],
	"nodes":[
		{
			"mesh":0,
			"name":"arm",
			"rotation":[
				0,
				0,
				-0.7071068286895752,
				0.7071068286895752
			],
			"scale":[
				0.6666666865348816,
				2,
				2
			],
			"translation":[
				2,
				-0.6666666269302368,
				0
			]
		},
		{
			"mesh":0,
			"name":"arm_mirror",
			"rotation":[
				0.7071068286895752,
				0.7071068286895752,
				0,
				0
			],
			"scale":[
				-0.6666666865348816,
				-2,
				-2
			],
			"translation":[
				-2,
				-0.6666666269302368,
				0
			]
		},
		{
			"children":[
				0,
				1
			],
			"mesh":1,
			"name":"column",
			"scale":[
				0.5,
				1.5,
				0.5
			],
			"translation":[
				0,
				1.5,
				0
			]
		},
		{
			"mesh":2,
			"name":"panel",
			"translation":[
				0,
				0,
				-2
			]
		}
	],
	"materials":[
		{
			"doubleSided":true,
			"name":"brass",
			"pbrMetallicRoughness":{
				"baseColorFactor":[
					0.800000011920929,
					0.6000000238418579,
					0.20000000298023224,
					1
				],
				"metallicFactor":0,
				"roughnessFactor":0.5
			}
		},
		{
			"doubleSided":true,
			"name":"stone",
			"pbrMetallicRoughness":{
				"baseColorFactor":[
					0.6000000238418579,
					0.6000000238418579,
					0.6200000047683716,
					1
				],
				"metallicFactor":0,
				"roughnessFactor":0.5
			}
		}
	],
	"meshes":[
		{
			"name":"arm",
			"primitives":[
				{
					"attributes":{
						"POSITION":0,
						"NORMAL":1,
						"TEXCOORD_0":2
					},
					"indices":3,
					"material":0
				}
			]
		},
		{
			"name":"column",
			"primitives":[
				{
					"attributes":{
						"POSITION":4,
						"NORMAL":5,
						"TEXCOORD_0":6
					},
					"indices":7,
					"material":1
				}
			]
		},
		{
			"name":"panel",
			"primitives":[
				{
					"attributes":{
						"POSITION":8,
						"NORMAL":9,
						"TEXCOORD_0":10
					},
					"indices":11,
					"material":1
				},
				{
					"attributes":{
						"POSITION":12,
						"NORMAL":13,
						"TEXCOORD_0":14
					},
					"indices":15,
					"material":0
				}
			]
		}
	],
	"accessors":[
		{
			"bufferView":0,
			"componentType":5126,
			"count":32,
			"max":[
				0.30000001192092896,
				0.4000000059604645,
				0.30000001192092896
			],
			"min":[
				-0.30000001192092896,
				-0.4000000059604645,
				-0.30000001192092896
			],
			"type":"VEC3"
		},
		{
			"bufferView":1,
			"componentType":5126,
			"count":32,
			"type":"VEC3"
		},
		{
			"bufferView":2,
			"componentType":5126,
			"count":32,
			"type":"VEC2"
		},
		{
			"bufferView":3,
			"componentType":5123,
			"count":42,
			"type":"SCALAR"
		},
		{
			"bufferView":4,
			"componentType":5126,
			"count":24,
			"max":[
				0.5,
				0.5,
				0.5
			],
			"min":[
				-0.5,
				-0.5,
				-0.5
			],
			"type":"VEC3"
		},
		{
			"bufferView":5,
			"componentType":5126,
			"count":24,
			"type":"VEC3"
		},
		{
			"bufferView":6,
			"componentType":5126,
			"count":24,
			"type":"VEC2"
		},
		{
			"bufferView":7,
			"componentType":5123,
			"count":36,
			"type":"SCALAR"
		},
		{
			"bufferView":8,
			"componentType":5126,
			"count":7,
			"max":[
				1,
				0,
				1
			],
			"min":[
				-1,
				0,
				-1
			],
			"type":"VEC3"
		},
		{
			"bufferView":9,
			"componentType":5126,
			"count":7,
			"type":"VEC3"
		},
		{
			"bufferView":10,
			"componentType":5126,
			"count":7,
			"type":"VEC2"
		},
		{
			"bufferView":11,
			"componentType":5123,
			"count":12,
			"type":"SCALAR"
		},
		{
			"bufferView":12,
			"componentType":5126,
			"count":7,
			"max":[
				1,
				0,
				1
			],
			"min":[
				-1,
				0,
				-1
			],
			"type":"VEC3"
		},
		{
			"bufferView":13,
			"componentType":5126,
			"count":7,
			"type":"VEC3"
		},
		{
			"bufferView":14,
			"componentType":5126,
			"count":7,
			"type":"VEC2"
		},
		{
			"bufferView":15,
			"componentType":5123,
			"count":12,
			"type":"SCALAR"
		}
	],
	"bufferViews":[
		{
			"buffer":0,
			"byteLength":384,
			"byteOffset":0,
			"target":34962
		},
		{
			"buffer":0,
			"byteLength":384,
			"byteOffset":384,
			"target":34962
		},
		{
			"buffer":0,
			"byteLength":256,
			"byteOffset":768,
			"target":34962
		},
		{
			"buffer":0,
			"byteLength":84,
			"byteOffset":1024,
			"target":34963
		},
		{
			"buffer":0,
			"byteLength":288,
			"byteOffset":1108,
			"target":34962
		},
		{
			"buffer":0,
			"byteLength":288,
			"byteOffset":1396,
			"target":34962
		},
		{
			"buffer":0,
			"byteLength":192,
			"byteOffset":1684,
			"target":34962
		},
		{
			"buffer":0,
			"byteLength":72,
			"byteOffset":1876,
			"target":34963
		},
		{
			"buffer":0,
			"byteLength":84,
			"byteOffset":1948,
			"target":34962
		},
		{
			"buffer":0,
			"byteLength":84,
			"byteOffset":2032,
			"target":34962
		},
		{
			"buffer":0,
			"byteLength":56,
			"byteOffset":2116,
			"target":34962
		},
		{
			"buffer":0,
			"byteLength":24,
			"byteOffset":2172,
			"target":34963
		},
		{
			"buffer":0,
			"byteLength":84,
			"byteOffset":2196,
			"target":34962
		},
		{
			"buffer":0,
			"byteLength":84,
			"byteOffset":2280,
			"target":34962
		},
		{
			"buffer":0,
			"byteLength":56,
			"byteOffset":2364,
			"target":34962
		},
		{
			"buffer":0,
			"byteLength":24,
			"byteOffset":2420,
			"target":34963
		}
	],
	"buffers":[
		{
			"byteLength":2444,
			"uri":"model.bin"
		}
	]
}
